<svg width="20" height="20" viewBox="0 0 20 20" fill="none" xmlns="http://www.w3.org/2000/svg">
<path d="M8.20801 14.4596L16.208 6.45956L14.9582 5.16711L8.20801 11.9182L5.04001 8.75022L3.79379 10L8.20801 14.4596ZM16.208 2C16.7081 2 17.1319 2.18074 17.4791 2.54222C17.8264 2.9037 18 3.3197 18 3.79022V16.208C18 16.6803 17.8264 17.0969 17.4791 17.4578C17.1319 17.8193 16.7081 18 16.208 18H3.79023C3.29068 18 2.86698 17.8193 2.51912 17.4578C2.17127 17.0963 1.99824 16.6797 2.00001 16.208V3.79022C2.00001 3.31852 2.17335 2.90252 2.52001 2.54222C2.86668 2.18074 3.29038 2 3.79112 2H16.208Z" fill="#2578F4"/>
<path d="M16.2082 6.45944L8.20816 14.4594L3.79395 9.99988L5.04017 8.7501L8.20816 11.9181L14.9584 5.16699L16.2082 6.45944Z" fill="white"/>
</svg>
